<svg xmlns="http://www.w3.org/2000/svg" data-name="Layer 1" viewBox="0 0 100 125" x="0px" y="0px"><title>Bullet Point</title><path d="M88.59,71.17a11.29,11.29,0,0,1,3.93-8.83,16.69,16.69,0,0,0,0-24.68,11.29,11.29,0,0,1-3.93-8.83A17.1,17.1,0,0,0,71.17,11.41a11.29,11.29,0,0,1-8.83-3.93,16.69,16.69,0,0,0-24.68,0,11.29,11.29,0,0,1-8.83,3.93A17.1,17.1,0,0,0,11.41,28.83a11.29,11.29,0,0,1-3.93,8.83,16.69,16.69,0,0,0,0,24.68,11.29,11.29,0,0,1,3.93,8.83A17.1,17.1,0,0,0,28.83,88.59a11.29,11.29,0,0,1,8.83,3.93,16.69,16.69,0,0,0,24.68,0,11.29,11.29,0,0,1,8.83-3.93A17.1,17.1,0,0,0,88.59,71.17Z"/><text x="0" y="115" fill="#000000" font-size="5px" font-weight="bold" font-family="'Helvetica Neue', Helvetica, Arial-Unicode, Arial, Sans-serif">Created by Rainbow Designs</text><text x="0" y="120" fill="#000000" font-size="5px" font-weight="bold" font-family="'Helvetica Neue', Helvetica, Arial-Unicode, Arial, Sans-serif">from the Noun Project</text></svg>